<svg xmlns="http://www.w3.org/2000/svg" xmlns:xlink="http://www.w3.org/1999/xlink" version="1.1" x="0px" y="0px" viewBox="0 0 100 100" enable-background="new 0 0 100 100" xml:space="preserve" fill="#CDD7D6"><g><path fill-rule="evenodd" clip-rule="evenodd" d="M49.999,55.758c4.923,0,8.938-4.015,8.938-8.937c0-4.923-4.016-8.938-8.938-8.938   c-4.922,0-8.938,4.015-8.938,8.938C41.062,51.743,45.077,55.758,49.999,55.758z"></path><path fill-rule="evenodd" clip-rule="evenodd" d="M42.726,35.078L27.653,10.743C15.163,18.481,7.563,32.128,7.563,46.821h28.624   C36.187,41.862,38.801,37.513,42.726,35.078z"></path><path fill-rule="evenodd" clip-rule="evenodd" d="M63.812,46.831l28.626,0.02c0.009-14.692-7.582-28.346-20.067-36.091   L57.282,35.082C61.219,37.529,63.817,41.896,63.812,46.831z"></path><path fill-rule="evenodd" clip-rule="evenodd" d="M49.999,60.633c-2.363,0-4.588-0.594-6.533-1.641l-13.537,25.22   c12.946,6.948,28.565,6.706,41.289-0.64L56.907,58.784C54.875,59.96,52.516,60.633,49.999,60.633z"></path></g></svg>