<svg xmlns:dc="http://purl.org/dc/elements/1.1/" xmlns:cc="http://creativecommons.org/ns#" xmlns:rdf="http://www.w3.org/1999/02/22-rdf-syntax-ns#" xmlns:svg="http://www.w3.org/2000/svg" xmlns="http://www.w3.org/2000/svg" xmlns:sodipodi="http://sodipodi.sourceforge.net/DTD/sodipodi-0.dtd" xmlns:inkscape="http://www.inkscape.org/namespaces/inkscape" viewBox="0 0 32 32.000001" version="1.1" x="0px" y="0px"><g fill="#CDD7D6" transform="translate(0,-1020.3622)"><path style="" d="m 15,1026.3759 0,0.5078 -2.63672,0 a 1,1 0 0 0 -0.86328,-0.5 1,1 0 0 0 -1,1 1,1 0 0 0 1,1 1,1 0 0 0 0.86328,-0.5 l 2.63672,0 0,0.4922 0.5,0 a 0.50005,0.50005 0 0 0 0,0.01 l 0,2 -0.5,0 0,2 -1.25,0 c -0.6925,0 -1.25,0.5574 -1.25,1.2501 l 0,0.75 -5.4043,0 c -1.43828,0 -2.5957,1.1847 -2.5957,2.6563 l 0,2.9785 3,0 0,-1.3848 c 0,-0.6926 0.55749,-1.25 1.25,-1.25 l 3.75,0 0,0.75 c 0,0.6925 0.5575,1.25 1.25,1.25 l 4.5,0 c 0.69251,0 1.25,-0.5575 1.25,-1.25 l 0,-0.75 5,0 0,3 3,0 0,-9.0001 -3,0 0,3.0001 -5,0 0,-0.75 c 0,-0.6927 -0.55749,-1.2501 -1.25,-1.2501 l -1.25196,0 0,-2 -0.49804,0 0,-2 a 0.50005,0.50005 0 0 0 0,-0.01 l 0.49804,0 0,-0.4922 2.63672,0 a 1,1 0 0 0 0.86524,0.5 1,1 0 0 0 1,-1 1,1 0 0 0 -1,-1 1,1 0 0 0 -0.86719,0.5 l -2.63477,0 0,-0.5078 -1.99804,0 z m -9.00196,16.6465 c -0.21878,0.2528 -0.42233,0.4688 -0.84374,1.0508 -0.30325,0.4187 -0.60378,0.8765 -0.82032,1.2949 -0.21653,0.4183 -0.33398,0.8067 -0.33398,1 0,1.1073 0.88903,1.9941 2,1.9941 1.11096,0 2,-0.8868 2,-1.9941 0,-0.1933 -0.11941,-0.5817 -0.33594,-1 -0.21653,-0.4184 -0.51708,-0.8762 -0.82031,-1.2949 -0.4218,-0.5825 -0.62709,-0.7982 -0.84571,-1.0508 z" fill="#CDD7D6" stroke="none"></path></g></svg>